<?xml version="1.0" encoding="UTF-8" standalone="no"?>
<svg
   id="Ebene_1"
   data-name="Ebene 1"
   viewBox="-2 -2 418.3 77.27"
   version="1.1"
   width="418.3"
   height="77.27"
   xmlns="http://www.w3.org/2000/svg"
   xmlns:svg="http://www.w3.org/2000/svg">
  <defs
     id="defs4">
    <style
       id="style2">
      .cls-1 {
        fill: #222122;
      }

      .cls-2 {
        fill: #857145;
      }
    </style>
  </defs>
  <rect
     class="cls-2"
     x="99.500015"
     y="0.019989014"
     width="34.849998"
     height="6.9299998"
     id="rect6" />
  <rect
     class="cls-2"
     x="99.500015"
     y="17.720001"
     width="34.849998"
     height="6.9299998"
     id="rect8" />
  <rect
     class="cls-2"
     x="99.500015"
     y="35.659973"
     width="34.849998"
     height="6.9299998"
     id="rect10" />
  <rect
     class="cls-2"
     x="305.70001"
     y="0.069976807"
     width="6.8600001"
     height="42.52"
     id="rect12" />
  <rect
     class="cls-2"
     x="0.029998779"
     y="0"
     width="34.84"
     height="6.9299998"
     id="rect14" />
  <polygon
     class="cls-2"
     points="617.4,281.86 603.42,265.52 598.36,269.85 613.01,286.99 598.36,304.12 603.42,308.45 617.4,292.12 631.37,308.45 636.44,304.12 621.78,286.99 636.44,269.85 631.37,265.52 "
     id="polygon16"
     transform="translate(-222.14,-265.45001)" />
  <rect
     class="cls-2"
     x="0"
     y="17.720001"
     width="34.849998"
     height="6.9299998"
     id="rect18" />
  <rect
     class="cls-2"
     x="0"
     y="17.889984"
     width="6.9299998"
     height="24.700001"
     id="rect20" />
  <path
     class="cls-2"
     d="M 198.45,0.00998779 V 42.589988 h 42.58 V 0.00998779 Z M 233.02,39.389988 201.45,8.1199878 l 4.83,-4.87 31.57,31.2700002 z"
     id="path22" />
  <g
     id="g40"
     transform="translate(-222.14,-265.45001)">
    <path
       class="cls-1"
       d="m 344.23,331.03 v 2.65 h -5.17 v 4.75 h -3.24 v -12.87 h 9.58 v 2.65 h -6.34 v 2.83 h 5.17 z"
       id="path24" />
    <path
       class="cls-1"
       d="m 362.68,325.55 v 10.23 h 5.73 v 2.65 h -8.97 v -12.87 h 3.24 z"
       id="path26" />
    <path
       class="cls-1"
       d="m 381.09,331.98 c 0,-3.87 2.29,-6.72 6.38,-6.72 4.09,0 6.37,2.84 6.37,6.72 0,3.88 -2.32,6.73 -6.37,6.73 -4.05,0 -6.38,-2.84 -6.38,-6.73 z m 9.44,0 c 0,-2.23 -0.72,-4.07 -3.06,-4.07 -2.34,0 -3.06,1.84 -3.06,4.07 0,2.23 0.7,4.09 3.06,4.09 2.36,0 3.06,-1.84 3.06,-4.09 z"
       id="path28" />
    <path
       class="cls-1"
       d="m 407.52,331.98 c 0,-3.87 2.29,-6.72 6.37,-6.72 4.08,0 6.37,2.84 6.37,6.72 0,3.88 -2.32,6.73 -6.37,6.73 -4.05,0 -6.37,-2.84 -6.37,-6.73 z m 9.43,0 c 0,-2.23 -0.72,-4.07 -3.06,-4.07 -2.34,0 -3.06,1.84 -3.06,4.07 0,2.23 0.7,4.09 3.06,4.09 2.36,0 3.06,-1.84 3.06,-4.09 z"
       id="path30" />
    <path
       class="cls-1"
       d="m 434.48,325.55 h 6.07 c 2.86,0 4.59,1.33 4.59,3.67 0,1.8 -1.01,2.86 -2.61,3.22 v 0.04 c 3.22,0.56 2.05,5.55 2.79,5.76 v 0.18 h -3.37 c -0.63,-0.54 0.54,-4.48 -2.21,-4.48 h -2.02 v 4.48 h -3.24 z m 3.24,5.75 h 2.2 c 1.3,0 1.98,-0.47 1.98,-1.55 0,-1.08 -0.68,-1.55 -1.98,-1.55 h -2.2 z"
       id="path32" />
    <path
       class="cls-1"
       d="m 462.82,325.55 v 12.87 h -3.24 v -12.87 z"
       id="path34" />
    <path
       class="cls-1"
       d="m 477.57,325.55 h 3.24 l 4.5,7.65 h 0.04 v -7.65 h 3.24 v 12.87 h -3.24 l -4.5,-7.65 h -0.04 v 7.65 h -3.24 z"
       id="path36" />
    <path
       class="cls-1"
       d="m 508.99,327.91 c -2.12,0 -2.86,1.66 -2.86,4.07 0,2.41 0.74,4.09 2.99,4.09 1.49,0 2.54,-0.9 2.57,-2.14 h -2.45 v -2.34 h 5.8 v 6.84 h -2.32 l -0.32,-1.64 h -0.04 c -0.61,1.17 -1.82,1.93 -3.71,1.93 -3.65,0 -5.83,-2.84 -5.83,-6.73 0,-3.89 2.18,-6.72 6.23,-6.72 3.53,0 5.49,2.09 5.8,4.56 h -3.31 c -0.23,-0.88 -0.76,-1.91 -2.54,-1.91 z"
       id="path38" />
  </g>
</svg>
